<?xml version="1.0" encoding="UTF-8" standalone="no"?>
<!DOCTYPE svg PUBLIC "-//W3C//DTD SVG 1.1//EN" "http://www.w3.org/Graphics/SVG/1.1/DTD/svg11.dtd">
<svg width="100%" height="100%" viewBox="0 0 285 285" version="1.1" xmlns="http://www.w3.org/2000/svg" xmlns:xlink="http://www.w3.org/1999/xlink" xml:space="preserve" xmlns:serif="http://www.serif.com/" style="fill-rule:evenodd;clip-rule:evenodd;stroke-linejoin:round;stroke-miterlimit:2;">
    <g transform="matrix(1,0,0,1,-158,0)">
        <path d="M443,40C443,17.923 425.077,0 403,0L198,0C175.923,0 158,17.923 158,40L158,245C158,267.077 175.923,285 198,285L403,285C425.077,285 443,267.077 443,245L443,40Z" style="fill:rgb(13,10,46);"/>
        <g transform="matrix(1,0,0,1,0,-382)">
            <path d="M280.725,438.372C296.311,433.559 302.733,436.498 317.297,439.006L318.265,439.167L319.454,439.815C322.824,441.261 329.407,443.875 331.996,446.066L333.486,446.751C350.949,457.736 361.22,472.56 366.28,492.773C367.179,496.362 368.164,504.345 367.357,507.842L367.342,509.037C368.222,514.027 366.754,519.018 367.102,523.017L366.526,524.09C365.104,530.105 363.541,533.55 361.633,539.249L360.911,539.994C359.265,542.828 357.302,546.419 355.478,549.052L354.39,550.559C351.519,554.686 347.532,559.669 343.468,562.658C339.728,566.174 336.889,568.648 332.359,571.126C326.589,574.972 316.732,579.961 309.726,579.972L309.044,580.206C295.713,583.093 276.637,580.895 264.478,573.906C259.784,572.025 255.826,568.746 251.825,565.681L250.877,564.901C243.805,559.476 237.222,550.409 233.144,542.546L231.956,540.296C227.385,531.014 226.542,526.456 224.69,516.428C231.455,512.889 235.083,510.173 235.115,501.995L234.893,500.479C233.673,495.906 230.982,493.431 226.994,490.956C227.656,488.313 228.099,486.282 229.178,483.749L229.658,482.113C234.527,470.889 240.941,460.888 250.407,453.046C252.542,450.911 254.98,449.578 257.549,447.996L257.926,448.283L258.56,448.754C263.028,452.124 264.787,452.449 270.305,451.914L271.791,451.279C274.787,449.789 276.41,447.947 278.731,445.599C279.776,443.183 280.156,440.938 280.725,438.372Z" style="fill:rgb(48,45,123);fill-rule:nonzero;"/>
        </g>
        <g transform="matrix(1,0,0,1,0,-382)">
            <path d="M319.454,439.815C322.824,441.261 329.407,443.875 331.996,446.066L333.486,446.751C350.949,457.736 361.22,472.56 366.28,492.773C367.179,496.362 368.164,504.345 367.357,507.842L367.342,509.037C368.222,514.027 366.754,519.018 367.102,523.017L366.526,524.09C361.792,523.913 344.37,524.569 341.244,523.509L341.163,523.486C339.236,518.383 336.793,518.22 331.88,517.24C334.501,504.462 333.521,491.957 315.27,493.145C313.565,493.256 310.039,495.131 308.348,495.948C309.986,492.579 311.107,490.882 313.8,488.21C317.43,484.609 317.663,483.517 317.452,478.586C315.801,474.145 312.29,470.962 309.038,467.545L310.725,468.124C313.186,467.472 318.337,462.014 320.162,459.992C319.106,454.25 319.444,445.84 319.454,439.815Z" style="fill:rgb(238,138,62);fill-rule:nonzero;"/>
        </g>
        <g transform="matrix(1,0,0,1,0,-382)">
            <path d="M319.454,439.815C322.824,441.261 329.407,443.875 331.996,446.066L331.979,464.788C330.656,466.244 327.434,470.066 325.824,470.996C323.53,472.321 320.339,470.818 317.938,472.365C317.071,474.805 317.859,476.423 318.734,478.856L317.452,478.586C315.801,474.145 312.29,470.962 309.038,467.545L310.725,468.124C313.186,467.472 318.337,462.014 320.162,459.992C319.106,454.25 319.444,445.84 319.454,439.815Z" style="fill:rgb(237,156,67);fill-rule:nonzero;"/>
        </g>
        <g transform="matrix(1,0,0,1,0,-382)">
            <path d="M331.996,446.066L333.486,446.751C333.498,452.861 333.428,459.207 333.565,465.295C330.59,468.123 328.895,470.245 326.436,473.581C327.32,479.782 324.552,480.102 324.731,487.539L324.741,488.131C328.635,488.489 330.432,488.473 334.356,488.285C337.684,486.183 340.424,483.718 341.621,479.757L340.911,479.009L341.614,479.109C337.924,478.935 334.278,483.815 331.973,483.733L331.562,483.035C332.364,480.762 337.491,479.189 339.292,477.4C341.315,475.389 342.721,472.142 346.335,473.625C347.481,474.086 348.387,475 348.837,476.151C350.053,479.279 347.201,480.978 344.643,481.776C340.57,483.047 339.348,488.438 335.158,489.555C330.657,490.585 325.975,490.018 321.324,490.724C322.051,488.581 323.547,485.015 323.318,482.948C321.321,480.774 320.517,482.258 318.734,478.856C317.859,476.423 317.071,474.805 317.938,472.365C320.339,470.818 323.53,472.321 325.824,470.996C327.434,470.066 330.656,466.244 331.979,464.788L331.996,446.066Z" style="fill:rgb(236,204,169);fill-rule:nonzero;"/>
        </g>
        <g transform="matrix(1,0,0,1,0,-382)">
            <path d="M320.235,473.201C322.685,473.392 322.977,473.456 324.256,475.395C324.382,477.35 323.994,477.68 322.98,479.344L321.742,479.388C318.81,477.761 319.086,475.934 320.235,473.201Z" style="fill:rgb(237,156,67);fill-rule:nonzero;"/>
        </g>
        <g transform="matrix(1,0,0,1,0,-382)">
            <path d="M344.083,475.251C345.154,475.021 346.22,475.66 346.523,476.713C346.826,477.766 346.262,478.874 345.233,479.249C344.5,479.515 343.681,479.351 343.107,478.823C342.534,478.295 342.303,477.492 342.508,476.74C342.713,475.988 343.321,475.414 344.083,475.251Z" style="fill:rgb(238,138,62);fill-rule:nonzero;"/>
        </g>
        <g transform="matrix(1,0,0,1,0,-382)">
            <path d="M337.715,507.384C345.101,508.639 359.304,507.489 367.357,507.842L367.342,509.037C362.015,509.058 340.276,509.564 336.733,508.353L337.715,507.384Z" style="fill:rgb(235,233,237);fill-rule:nonzero;"/>
        </g>
        <g transform="matrix(1,0,0,1,0,-382)">
            <path d="M336.733,508.353C335.99,504.782 333.661,498.687 333.471,496.734C334.647,495.537 333.972,495.918 335.531,495.48C337.591,497.337 337.368,503.886 337.715,507.384L336.733,508.353Z" style="fill:rgb(236,204,169);fill-rule:nonzero;"/>
        </g>
        <g transform="matrix(1,0,0,1,0,-382)">
            <path d="M341.244,523.509C343.547,522.496 363.195,522.941 367.102,523.017L366.526,524.09C361.792,523.913 344.37,524.569 341.244,523.509Z" style="fill:rgb(236,204,169);fill-rule:nonzero;"/>
        </g>
        <g transform="matrix(1,0,0,1,0,-382)">
            <path d="M280.725,438.372C296.311,433.559 302.733,436.498 317.297,439.006L318.265,439.167L319.454,439.815C319.444,445.84 319.106,454.25 320.162,459.992C318.337,462.014 313.186,467.472 310.725,468.124L309.038,467.545C301.039,458.149 287.403,454.028 277.587,463.26C271.665,468.83 269.047,477.083 266.707,484.644C265.712,483.94 266.084,484.414 265.664,483.168C265.27,478.278 265.502,470.64 265.367,465.419C261.917,462.045 252.318,456.658 251.008,453.16L250.407,453.046C252.542,450.911 254.98,449.578 257.549,447.996L257.926,448.283L258.56,448.754C263.028,452.124 264.787,452.449 270.305,451.914L271.791,451.279C274.787,449.789 276.41,447.947 278.731,445.599C279.776,443.183 280.156,440.938 280.725,438.372Z" style="fill:rgb(237,156,67);fill-rule:nonzero;"/>
        </g>
        <g transform="matrix(1,0,0,1,0,-382)">
            <path d="M280.725,438.372C296.311,433.559 302.733,436.498 317.297,439.006L318.265,439.167L319.454,439.815C319.444,445.84 319.106,454.25 320.162,459.992C318.337,462.014 313.186,467.472 310.725,468.124C307.499,465.067 308.845,460.433 307.328,456.337C304.802,449.512 299.432,449.903 294.126,447.067C290.132,448.637 281.353,449.886 278.731,445.599C279.776,443.183 280.156,440.938 280.725,438.372Z" style="fill:rgb(238,138,62);fill-rule:nonzero;"/>
        </g>
        <g transform="matrix(1,0,0,1,0,-382)">
            <path d="M318.265,439.167L319.454,439.815C319.444,445.84 319.106,454.25 320.162,459.992C318.337,462.014 313.186,467.472 310.725,468.124C307.499,465.067 308.845,460.433 307.328,456.337C304.802,449.512 299.432,449.903 294.126,447.067C293.649,445.253 293.372,444.728 293.743,442.865C295.084,441.094 296.371,439.7 298.58,439.123C302.096,439.982 301.823,445.061 301.969,448.02C304.742,450.894 308.944,454.024 310.267,457.362C312.512,457.517 315.324,456.163 317.78,455.436C317.845,450.368 317.762,444.118 318.265,439.167Z" style="fill:rgb(236,204,169);fill-rule:nonzero;"/>
        </g>
        <g transform="matrix(1,0,0,1,0,-382)">
            <path d="M317.78,455.436C317.944,462.669 314.782,462.274 310.538,467.011C310.313,463.85 309.939,460.495 310.267,457.362C312.512,457.517 315.324,456.163 317.78,455.436Z" style="fill:rgb(237,156,67);fill-rule:nonzero;"/>
        </g>
        <g transform="matrix(1,0,0,1,0,-382)">
            <path d="M296.477,442.358C297.227,441.811 298.217,441.719 299.054,442.12C299.891,442.521 300.44,443.35 300.483,444.277C300.526,445.204 300.056,446.08 299.26,446.557C298.104,447.25 296.607,446.91 295.863,445.787C295.118,444.664 295.389,443.153 296.477,442.358Z" style="fill:rgb(237,156,67);fill-rule:nonzero;"/>
        </g>
        <g transform="matrix(1,0,0,1,0,-382)">
            <path d="M251.008,453.16C253.063,453.375 264.56,462.737 266.301,464.857C266.798,469.359 268.097,479.326 265.664,483.168C265.27,478.278 265.502,470.64 265.367,465.419C261.917,462.045 252.318,456.658 251.008,453.16Z" style="fill:rgb(236,204,169);fill-rule:nonzero;"/>
        </g>
        <g transform="matrix(1,0,0,1,0,-382)">
            <path d="M270.305,451.914L271.791,451.279C271.936,454.837 272.434,466.535 271.712,469.508C269.594,467.676 270.601,455.385 270.305,451.914Z" style="fill:rgb(236,204,169);fill-rule:nonzero;"/>
        </g>
        <g transform="matrix(1,0,0,1,0,-382)">
            <path d="M250.407,453.046L251.008,453.16C252.318,456.658 261.917,462.045 265.367,465.419C265.502,470.64 265.27,478.278 265.664,483.168C266.084,484.414 265.712,483.94 266.707,484.644L266.606,485.746L266.134,486.492L265.012,489.408L263.815,491.495C260.788,496.08 258.287,499.192 253.521,502.203L252.846,501.752C247.008,502.489 239.964,501.426 235.115,501.995L234.893,500.479C233.673,495.906 230.982,493.431 226.994,490.956C227.656,488.313 228.099,486.282 229.178,483.749L229.658,482.113C234.527,470.889 240.941,460.888 250.407,453.046Z" style="fill:rgb(237,156,67);fill-rule:nonzero;"/>
        </g>
        <g transform="matrix(1,0,0,1,0,-382)">
            <path d="M229.178,483.749C236.025,485.224 242.151,484.091 248.632,484.802C254.276,491.898 254.777,491.867 263.815,491.495C260.788,496.08 258.287,499.192 253.521,502.203L252.846,501.752C247.008,502.489 239.964,501.426 235.115,501.995L234.893,500.479C233.673,495.906 230.982,493.431 226.994,490.956C227.656,488.313 228.099,486.282 229.178,483.749Z" style="fill:rgb(238,138,62);fill-rule:nonzero;"/>
        </g>
        <g transform="matrix(1,0,0,1,0,-382)">
            <path d="M234.893,500.479C237.912,500.487 250.554,500.207 252.594,501.417L252.846,501.752C247.008,502.489 239.964,501.426 235.115,501.995L234.893,500.479Z" style="fill:rgb(236,204,169);fill-rule:nonzero;"/>
        </g>
        <g transform="matrix(1,0,0,1,0,-382)">
            <path d="M259.189,486.547C256.15,483.21 252.284,476.266 248.471,478.34C247.122,479.074 245.985,479.286 244.502,478.911C240.7,476.315 240.422,471.681 244.835,470.058C249.608,470.154 255.366,479.867 259.876,484.533C262.634,484.785 263.934,484.816 266.606,485.746L266.134,486.492L259.189,486.547Z" style="fill:rgb(236,204,169);fill-rule:nonzero;"/>
        </g>
        <g transform="matrix(1,0,0,1,0,-382)">
            <path d="M245.185,472.866C246.113,472.261 247.351,472.478 248.019,473.362C248.686,474.247 248.554,475.497 247.717,476.222C247.122,476.738 246.29,476.879 245.559,476.589C244.827,476.298 244.319,475.624 244.241,474.841C244.162,474.058 244.526,473.296 245.185,472.866Z" style="fill:rgb(237,156,67);fill-rule:nonzero;"/>
        </g>
        <g transform="matrix(1,0,0,1,0,-382)">
            <path d="M229.658,482.113C234.465,484.563 243.373,481.921 246.56,483.149C257.685,487.437 249.977,491.134 265.012,489.408L263.815,491.495C254.777,491.867 254.276,491.898 248.632,484.802C242.151,484.091 236.025,485.224 229.178,483.749L229.658,482.113Z" style="fill:rgb(236,204,169);fill-rule:nonzero;"/>
        </g>
        <g transform="matrix(1,0,0,1,0,-382)">
            <path d="M235.115,501.995C239.964,501.426 247.008,502.489 252.846,501.752L253.521,502.203C250.633,504.308 248.244,505.739 246.608,508.98C248.023,509.39 248.018,509.515 249.425,509.225C249.397,512.697 247.583,514.581 248.388,517.63C247.77,522.331 246.255,529.101 245.83,533.098C245.406,535.97 245.642,537.05 247.16,539.538L247.602,540.625C244.156,541.481 235.937,540.449 231.956,540.296C227.385,531.014 226.542,526.456 224.69,516.428C231.455,512.889 235.083,510.173 235.115,501.995Z" style="fill:rgb(237,112,77);fill-rule:nonzero;"/>
        </g>
        <g transform="matrix(1,0,0,1,0,-382)">
            <path d="M245.058,517.985L245.086,518.628C242.722,521.126 237.404,532.841 231.629,523.24C231.061,522.296 231.55,521.159 231.94,520.214C235.143,517.446 240.248,519.393 245.058,517.985Z" style="fill:rgb(240,171,143);fill-rule:nonzero;"/>
        </g>
        <g transform="matrix(1,0,0,1,0,-382)">
            <path d="M233.671,519.885C235.438,519.967 236.897,519.815 238.35,520.731C238.989,522.502 238.775,521.971 238.113,524.186C236.704,525.102 236.129,525.217 234.71,524.555C233.631,522.846 233.788,521.994 233.671,519.885Z" style="fill:rgb(237,112,77);fill-rule:nonzero;"/>
        </g>
        <g transform="matrix(1,0,0,1,0,-382)">
            <path d="M246.608,508.98C248.023,509.39 248.018,509.515 249.425,509.225C249.397,512.697 247.583,514.581 248.388,517.63C247.154,518.135 246.43,518.526 245.086,518.628L245.058,517.985C245.26,516.788 244.878,516.512 245.162,515.021C244.771,512.783 245.571,510.889 246.608,508.98Z" style="fill:rgb(237,126,77);fill-rule:nonzero;"/>
        </g>
        <g transform="matrix(1,0,0,1,0,-382)">
            <path d="M246.608,508.98C248.023,509.39 248.018,509.515 249.425,509.225C247.44,510.659 246.44,512.855 245.162,515.021C244.771,512.783 245.571,510.889 246.608,508.98Z" style="fill:rgb(68,60,123);fill-rule:nonzero;"/>
        </g>
        <g transform="matrix(1,0,0,1,0,-382)">
            <path d="M336.413,539.367C334.57,534.329 333.234,529.203 330.237,524.752L329.693,523.95C328.424,522.053 328.338,521.984 328.714,520.146C329.988,518.758 329.251,519.055 330.829,518.879C335.462,521.478 333.398,524.897 337.904,527.597C339.164,527.044 340.122,525.961 341.145,524.997L341.163,523.486L341.244,523.509C344.37,524.569 361.792,523.913 366.526,524.09C365.104,530.105 363.541,533.55 361.633,539.249L360.911,539.994C353.088,539.76 344.373,539.979 336.51,540.033L336.413,539.367Z" style="fill:rgb(237,112,77);fill-rule:nonzero;"/>
        </g>
        <g transform="matrix(1,0,0,1,0,-382)">
            <path d="M336.413,539.367C339.583,538.397 357.986,538.827 361.633,539.249L360.911,539.994C353.088,539.76 344.373,539.979 336.51,540.033L336.413,539.367Z" style="fill:rgb(235,190,168);fill-rule:nonzero;"/>
        </g>
        <g transform="matrix(1,0,0,1,0,-382)">
            <path d="M341.145,524.997C341.868,527.008 342.691,528.538 342.332,530.574L341.69,531.169C339.525,530.569 339.133,529.5 337.904,527.597C339.164,527.044 340.122,525.961 341.145,524.997Z" style="fill:rgb(68,60,123);fill-rule:nonzero;"/>
        </g>
        <g transform="matrix(1,0,0,1,0,-382)">
            <path d="M349.766,528.709C352.204,528.591 353.011,528.435 354.694,530.312C355.663,533.908 353.489,535.291 350.677,536.746C348.686,534.838 345.296,532.433 345.282,529.689C346.966,528.525 347.358,528.896 349.766,528.709Z" style="fill:rgb(235,190,168);fill-rule:nonzero;"/>
        </g>
        <g transform="matrix(1,0,0,1,0,-382)">
            <path d="M348.088,530.08C349.796,529.869 350.351,529.694 352.048,530.12C353.042,531.661 352.712,531.231 352.471,533.548C350.877,533.638 350.988,533.639 349.498,533.048C348.327,531.915 348.433,531.67 348.088,530.08Z" style="fill:rgb(237,112,77);fill-rule:nonzero;"/>
        </g>
        <g transform="matrix(1,0,0,1,0,-382)">
            <path d="M247.758,532.565C248.897,533.347 249.639,538.469 250.174,540.35C251.166,542.349 252.351,545.317 254.265,546.386L256.364,546.775C256.937,549.012 257.692,551.642 258.1,553.875L257.403,554.505C256.486,557.13 253.659,556.013 250.986,555.953C251.353,558.079 252.811,564.165 251.825,565.681L250.877,564.901C243.805,559.476 237.222,550.409 233.144,542.546L231.956,540.296C235.937,540.449 244.156,541.481 247.602,540.625L247.16,539.538C245.642,537.05 245.406,535.97 245.83,533.098L247.758,532.565Z" style="fill:rgb(237,112,77);fill-rule:nonzero;"/>
        </g>
        <g transform="matrix(1,0,0,1,0,-382)">
            <path d="M247.758,532.565C248.897,533.347 249.639,538.469 250.174,540.35C249.08,542.539 249.568,543.169 250.303,545.699L250.03,546.65C247.962,545.616 246.634,543.854 245.234,542.035C242.689,542.045 235.093,541.89 233.144,542.546L231.956,540.296C235.937,540.449 244.156,541.481 247.602,540.625L247.16,539.538C245.642,537.05 245.406,535.97 245.83,533.098L247.758,532.565Z" style="fill:rgb(237,126,77);fill-rule:nonzero;"/>
        </g>
        <g transform="matrix(1,0,0,1,0,-382)">
            <path d="M245.83,533.098L247.758,532.565C246.786,535.054 247.078,536.852 247.16,539.538C245.642,537.05 245.406,535.97 245.83,533.098Z" style="fill:rgb(68,60,123);fill-rule:nonzero;"/>
        </g>
        <g transform="matrix(1,0,0,1,0,-382)">
            <path d="M248.808,555.059C246.25,554.866 245.782,554.72 243.349,553.865C246.448,553.717 252.984,554.535 257.403,554.505C256.486,557.13 253.659,556.013 250.986,555.953C251.353,558.079 252.811,564.165 251.825,565.681L250.877,564.901C250.83,563.352 249.243,556.948 248.808,555.059Z" style="fill:rgb(237,126,77);fill-rule:nonzero;"/>
        </g>
        <g transform="matrix(1,0,0,1,0,-382)">
            <path d="M295.25,511.441L295.724,511.142C297.565,509.957 301.386,506.578 302.458,506.202C306.01,509.436 301.271,524.822 310.398,524.75C311.627,524.741 314.59,524.031 315.904,523.735C314.557,526.229 312.73,529.405 311.543,531.917L310.361,534.398C309.769,534.716 308.859,535.163 308.306,535.553C308.052,531.826 293.344,517.722 290.18,514.444C288.434,512.633 286.897,511.432 284.326,511.34L286.271,507.212C289.64,509.006 291.699,510.111 295.25,511.441Z" style="fill:rgb(237,112,77);fill-rule:nonzero;"/>
        </g>
        <g transform="matrix(1,0,0,1,0,-382)">
            <path d="M336.51,540.033C344.373,539.979 353.088,539.76 360.911,539.994C359.265,542.828 357.302,546.419 355.478,549.052L354.39,550.559C348.802,550.692 343.212,550.775 337.622,550.808L337.5,549.48C337.539,545.561 337.211,543.926 336.51,540.033Z" style="fill:rgb(237,112,77);fill-rule:nonzero;"/>
        </g>
        <g transform="matrix(1,0,0,1,0,-382)">
            <path d="M337.5,549.48C343.491,549.272 349.484,549.129 355.478,549.052L354.39,550.559C348.802,550.692 343.212,550.775 337.622,550.808L337.5,549.48Z" style="fill:rgb(240,171,143);fill-rule:nonzero;"/>
        </g>
        <g transform="matrix(1,0,0,1,0,-382)">
            <path d="M337.622,550.808C343.212,550.775 348.802,550.692 354.39,550.559C351.519,554.686 347.532,559.669 343.468,562.658C339.728,566.174 336.889,568.648 332.359,571.126L331.902,569.173L332.468,567.626C332.659,567.138 334.264,564.273 334.597,563.659C336.791,558.307 337.411,556.542 337.622,550.808Z" style="fill:rgb(237,112,77);fill-rule:nonzero;"/>
        </g>
        <g transform="matrix(1,0,0,1,0,-382)">
            <path d="M309.726,579.972C308.01,574.481 302.678,564.219 314.562,568.931C320.73,571.376 324.99,571.755 331.212,569.436L331.902,569.173L332.359,571.126C326.589,574.972 316.732,579.961 309.726,579.972Z" style="fill:rgb(48,45,123);fill-rule:nonzero;"/>
        </g>
        <g transform="matrix(1,0,0,1,0,-382)">
            <path d="M284.326,511.34C286.897,511.432 288.434,512.633 290.18,514.444C293.344,517.722 308.052,531.826 308.306,535.553L307.513,535.693C305.455,533.728 290.295,522.814 288.138,522.134C284.458,519.212 282.592,515.969 284.326,511.34Z" style="fill:rgb(237,156,67);fill-rule:nonzero;"/>
        </g>
        <g transform="matrix(1,0,0,1,0,-382)">
            <path d="M258.1,553.875C260.12,560.586 262.246,567.263 264.478,573.906C259.784,572.025 255.826,568.746 251.825,565.681C252.811,564.165 251.353,558.079 250.986,555.953C253.659,556.013 256.486,557.13 257.403,554.505L258.1,553.875Z" style="fill:rgb(239,105,75);fill-rule:nonzero;"/>
        </g>
        <g transform="matrix(1,0,0,1,0,-382)">
            <path d="M307.647,565.426C298.051,559.932 285.699,551.339 278.521,543.129C280.671,544.09 285.633,549.047 287.98,550.635C300.929,559.395 315.883,574.908 332.468,567.626L331.902,569.173L331.212,569.436C324.99,571.755 320.73,571.376 314.562,568.931C302.678,564.219 308.01,574.481 309.726,579.972L309.044,580.206C305.877,574.465 304.477,571.597 307.647,565.426Z" style="fill:rgb(116,81,105);fill-rule:nonzero;"/>
        </g>
        <g transform="matrix(1,0,0,1,0,-382)">
            <path d="M270.165,497.079C268.929,504.272 266.981,507.404 263.564,513.756L263.003,514.804C256.642,526.858 255.006,532.895 256.364,546.775L254.265,546.386C254.761,542.673 254.206,536.496 255.017,532.54C257.211,521.834 264.974,506.885 270.165,497.079Z" style="fill:rgb(237,156,67);fill-rule:nonzero;"/>
        </g>
        <g transform="matrix(1,0,0,1,0,-382)">
            <path d="M288.138,522.134C290.295,522.814 305.455,533.728 307.513,535.693C303.781,536.486 300.244,534.503 296.476,533.176L296.544,532.516L296.889,531.234C295.882,528.782 290.229,524.022 288.138,522.134Z" style="fill:rgb(238,138,62);fill-rule:nonzero;"/>
        </g>
        <g transform="matrix(1,0,0,1,0,-382)">
            <path d="M263.003,514.804L263.564,513.756C283.052,515.35 282.497,526.935 296.544,532.516L296.476,533.176C285.268,532.36 283.515,516.123 263.003,514.804Z" style="fill:rgb(97,72,110);fill-rule:nonzero;"/>
        </g>
        <g transform="matrix(1,0,0,1,0,-382)">
            <path d="M311.543,531.917C314.326,531.434 316.879,530.492 319.406,530.208C317.271,531.241 312.371,533.751 310.361,534.398L311.543,531.917Z" style="fill:rgb(68,60,123);fill-rule:nonzero;"/>
        </g>
        <g transform="matrix(1,0,0,1,0,-382)">
            <path d="M275.573,533.46C279.122,533.498 297.764,545.186 303.613,545.662C308.919,546.095 318.91,542.091 321.726,545.456L321.436,546.002C317.986,544.394 313.092,545.288 309.633,546.534L309.615,547.253C311.947,549.688 317.294,551.776 320.729,551.411C323.759,549.435 324.842,546.819 326.671,543.682L326.933,543.812C325.989,548.123 325.061,551.181 320.373,552.685C316.468,553.415 311.264,549.321 307.6,548.17C297.162,544.892 285.401,539.531 275.742,534.402L275.573,533.46Z" style="fill:rgb(116,81,105);fill-rule:nonzero;"/>
        </g>
        <g transform="matrix(1,0,0,1,0,-382)">
            <path d="M276.169,525.242C278.297,526.045 282.015,526.309 283.1,526.954C281.707,528.771 281.401,529.323 280.333,531.373C278.189,531.557 276.121,532.121 274.844,530.272L275.008,530.338C275.126,527.739 274.955,527.62 276.169,525.242Z" style="fill:rgb(116,81,105);fill-rule:nonzero;"/>
        </g>
        <g transform="matrix(1,0,0,1,0,-382)">
            <path d="M218.668,627.316C223.003,625.137 227.838,623.229 232.319,621.319C273.232,603.883 315.211,588.39 354.528,567.484C377.727,555.149 402.056,545.082 414.491,520.379C424.023,544.035 406.205,565.147 385.862,574.779C381.519,576.836 376.918,579.054 372.714,581.355C384.265,578.551 397.49,573.894 407.175,566.801C408.69,565.691 412.559,562.311 414.108,561.947L414.712,562.695C415.032,565.507 414.225,567.59 413.562,570.227C408.59,590.018 388.896,596.222 370.666,599.167L371.008,599.852C374.277,600.345 376.265,599.812 379.178,600.052C385.645,599.94 395.147,597.863 401.606,596.583C388.564,617.56 354.786,619.441 334.793,607.927C299.507,627.225 265.093,641.92 228.018,657.472C229.563,650.887 231.551,644.093 233.37,637.551C228.445,634.175 223.544,630.763 218.668,627.316Z" style="fill:rgb(48,45,123);fill-rule:nonzero;"/>
        </g>
        <g transform="matrix(1,0,0,1,0,-382)">
            <path d="M179.181,521.215C181.222,522.621 184.754,530.165 186.947,532.595C201.681,549.729 222.266,558.321 241.289,569.065C256.64,577.736 272.415,583.599 287.637,591.571C277.07,595.971 266.557,598.987 258.322,606.824C254.313,610.639 244.997,613.252 239.434,614.004C224.925,615.965 210.681,613.345 198.842,604.377C195.508,601.559 194.264,599.596 191.956,596.037C205.805,598.99 214.459,600.817 228.851,599.587C204.382,595.75 180.165,590.813 179.27,560.947C193.473,573.302 203.404,576.442 221.263,581.264C217.871,579.359 213.468,577.397 209.891,575.702C188.664,565.642 170.156,546.624 179.181,521.215Z" style="fill:rgb(48,45,123);fill-rule:nonzero;"/>
        </g>
        <g transform="matrix(1,0,0,1,0,-382)">
            <path d="M295.479,393.786C297.512,394.973 310.647,420.356 312.577,424.189C321.711,416.892 330.802,409.542 339.849,402.138C340.345,413.074 341.713,425.365 342.654,436.391C351.934,433.25 367.528,429.414 377.524,426.542C374.514,437.562 370.008,448.637 366.884,460.349C378.806,461.89 390.224,462.585 402.221,464.525C397.295,465.746 393.608,466.485 388.621,467.341L366.492,471.206C355.592,453.892 345.23,441.492 325.589,433.953C308.816,427.515 295.893,426.96 278.77,431.182C274.334,427.027 272.201,426.093 266.469,425.046C264.979,420.106 263.754,414.862 262.497,409.841C268.401,414.432 273.827,419.378 279.36,424.395C284.415,414.227 290.262,404.036 295.479,393.786Z" style="fill:rgb(237,156,67);fill-rule:nonzero;"/>
        </g>
        <g transform="matrix(1,0,0,1,0,-382)">
            <path d="M365.357,431.397C368.607,430.778 371.748,432.893 372.395,436.138C373.043,439.382 370.953,442.541 367.715,443.216C364.437,443.899 361.231,441.779 360.576,438.495C359.921,435.212 362.068,432.024 365.357,431.397Z" style="fill:rgb(13,10,46);fill-rule:nonzero;"/>
        </g>
        <g transform="matrix(1,0,0,1,0,-382)">
            <path d="M248.662,436.815C250.154,431.072 252.751,407.4 253.234,400.555C256.246,408.587 258.575,418.198 260.534,426.606C258.008,429.04 255.443,431.175 254.831,434.84C254.62,436.104 254.302,440.336 253.312,441.03C234.251,454.406 226.431,469.013 219.19,490.453C216.566,491.357 215.432,491.618 213.092,493.178L212.603,492.306C211.16,488.827 195.247,469.483 191.648,464.478C202.947,463.16 214.415,462.258 225.64,460.901C222.537,449.855 219.186,437.945 215.757,427.013C225.25,429.351 239.444,433.579 248.662,436.815Z" style="fill:rgb(238,138,62);fill-rule:nonzero;"/>
        </g>
        <g transform="matrix(1,0,0,1,0,-382)">
            <path d="M337.959,612.928C341.378,613.63 370.377,625.827 373.756,627.41L358.133,637.761C360.045,644.295 361.836,650.863 363.505,657.464L349.182,651.482C338.035,646.8 312.362,636.524 302.703,630.966L337.959,612.928Z" style="fill:rgb(48,45,123);fill-rule:nonzero;"/>
        </g>
        <g transform="matrix(1,0,0,1,0,-382)">
            <path d="M390.339,472.669C392.502,472.372 395.114,471.94 397.173,472.862C398.468,473.439 399.477,474.512 399.972,475.841C401.2,479.056 399.199,482.442 396.017,483.396C393.008,484.3 390.723,482.709 388.243,481.238C385.633,484.958 382.572,488.691 379.74,492.272C388.305,496.375 401.5,503.419 409.6,508.2C401.415,513.649 388.649,519.952 379.663,525.234C381.57,527.924 383.972,530.903 386.005,533.55L382.011,538.822C374.113,548.71 368.896,551.959 358.464,558.556C363.101,550.54 366.663,545.756 370.127,536.782C377.482,517.244 376.924,495.607 368.572,476.474C375.578,474.933 383.213,473.824 390.339,472.669Z" style="fill:rgb(237,112,77);fill-rule:nonzero;"/>
        </g>
        <g transform="matrix(1,0,0,1,0,-382)">
            <path d="M392.636,503.274C395.727,502.318 399.013,504.025 400.006,507.105C400.998,510.185 399.329,513.49 396.261,514.519C394.245,515.195 392.02,514.735 390.437,513.314C388.854,511.893 388.157,509.731 388.613,507.654C389.068,505.576 390.604,503.903 392.636,503.274Z" style="fill:rgb(13,10,46);fill-rule:nonzero;"/>
        </g>
        <g transform="matrix(1,0,0,1,0,-382)">
            <path d="M192.935,503.408L193.731,503.599C197.991,508.858 202.227,506.783 208.669,506.443C211.072,512.009 212.882,513.25 217.755,516.338C219.379,533.494 224.338,544.146 233.817,557.932C230.364,556.108 228.062,554.612 224.795,552.435C216.697,546.554 211.75,541.875 206.9,533.056C208.998,530.362 211.026,527.614 212.984,524.817C204.105,519.201 193.594,513.547 184.384,508.337C187.116,506.476 190.028,504.982 192.935,503.408Z" style="fill:rgb(237,112,77);fill-rule:nonzero;"/>
        </g>
        <g transform="matrix(1,0,0,1,0,-382)">
            <path d="M265.138,431.811C267.616,431.065 270.303,431.732 272.145,433.549C273.987,435.366 274.69,438.043 273.978,440.531C273.267,443.019 271.254,444.919 268.73,445.487C265.013,446.323 261.302,444.066 260.335,440.382C259.367,436.698 261.49,432.909 265.138,431.811Z" style="fill:rgb(237,156,67);fill-rule:nonzero;"/>
        </g>
        <g transform="matrix(1,0,0,1,0,-382)">
            <path d="M219.769,496.829C222.142,495.995 224.78,496.5 226.676,498.151C228.573,499.803 229.437,502.346 228.938,504.81C228.439,507.275 226.654,509.282 224.264,510.065C220.624,511.259 216.701,509.299 215.469,505.671C214.237,502.043 216.155,498.1 219.769,496.829Z" style="fill:rgb(237,112,77);fill-rule:nonzero;"/>
        </g>
        <g transform="matrix(1,0,0,1,0,-382)">
            <path d="M212.603,492.306L213.092,493.178C210.88,495.848 210.153,497.709 209.165,500.991L197.835,501.012C203.287,497.232 206.59,494.95 212.603,492.306Z" style="fill:rgb(237,126,77);fill-rule:nonzero;"/>
        </g>
    </g>
</svg>
